<svg xmlns="http://www.w3.org/2000/svg" xmlns:xlink="http://www.w3.org/1999/xlink"><defs><style>
    .sprite-symbol-usage {display: none;}
    .sprite-symbol-usage:target {display: inline;}
  </style><symbol viewBox="0 0 20 20" id="arrow-down"><path d="M10.5 16.08l-4.87-5.42.74-.66 4.13 4.58L14.63 10l.74.66z" /><path fill="none" stroke="#000" d="M10.5 4v11" /></symbol><symbol viewBox="0 0 20 20" id="arrow-left"><path fill="none" stroke="#000" d="M10 14L5 9.5 10 5M16 9.5L5 9.52" /></symbol><symbol viewBox="0 0 20 20" id="arrow-right"><path fill="none" stroke="#000" d="M10 5l5 4.5-5 4.5M4 9.5h11" /></symbol><symbol viewBox="0 0 20 20" id="arrow-up"><path d="M10.5 4l4.87 5.4-.74.68-4.13-4.59-4.13 4.59-.74-.68z" /><path fill="none" stroke="#000" d="M10.5 16V5" /></symbol><symbol viewBox="0 0 20 20" id="behance"><path d="M9.5 10.6c-.4-.5-.9-.9-1.6-1.1 1.7-1 2.2-3.2.7-4.7C7.8 4 6.3 4 5.2 4H0v12h5.2c1 0 2.1 0 3.1-.5 1.9-.9 2.2-3.2 1.2-4.9zM5.6 6.1c1.8 0 1.8 2.7-.1 2.7H2.6V6.1h3zm-3 7.7v-3.1h3.2c2.1 0 2.1 3.2.1 3.2l-3.3-.1zM19.9 10.9C19.7 9.2 18.7 7.6 17 7c-4.2-1.3-7.3 3.4-5.3 7.1.9 1.7 2.8 2.3 4.7 2.1 1.7-.2 2.9-1.3 3.4-2.9h-2.2c-.4 1.3-2.4 1.5-3.5.6-.4-.4-.6-1.1-.6-1.7H20c0-.5-.1-1.3-.1-1.3zm-6.4-.3c0-1.6 2.3-2.7 3.5-1.4.4.4.5.9.6 1.4h-4.1zM13 4h5v1.4h-5z" /></symbol><symbol viewBox="0 0 20 20" id="chevron-down"><path fill="none" stroke="#000" stroke-width="1.03" d="M16 7l-6 6-6-6" /></symbol><symbol viewBox="0 0 20 20" id="chevron-left"><path fill="none" stroke="#000" stroke-width="1.03" d="M13 16l-6-6 6-6" /></symbol><symbol viewBox="0 0 20 20" id="chevron-right"><path fill="none" stroke="#000" stroke-width="1.03" d="M7 4l6 6-6 6" /></symbol><symbol viewBox="0 0 20 20" id="chevron-up"><path fill="none" stroke="#000" stroke-width="1.03" d="M4 13l6-6 6 6" /></symbol><symbol viewBox="0 0 20 20" id="close"><path fill="none" stroke="#000" stroke-width="1.06" d="M16 16L4 4M16 4L4 16" /></symbol><symbol viewBox="0 0 20 20" id="cloud-download"><path fill="none" stroke="#000" stroke-width="1.1" d="M6.5 14.61H3.75C1.96 14.61.5 13.17.5 11.39c0-1.63 1.22-2.98 2.8-3.19C3.38 5.31 5.75 3 8.68 3c2.51 0 4.63 1.71 5.21 4.02.5-.22 1.04-.34 1.61-.34 2.21 0 4 1.77 4 3.96s-1.79 3.96-4 3.96h-3" /><path fill="none" stroke="#000" d="M11.75 16L9.5 18.25 7.25 16M9.5 18V9.5" /></symbol><symbol viewBox="0 0 20 20" id="cloud-upload"><path fill="none" stroke="#000" stroke-width="1.1" d="M6.5 14.61H3.75C1.96 14.61.5 13.17.5 11.39c0-1.63 1.22-2.98 2.81-3.19C3.38 5.31 5.75 3 8.68 3c2.51 0 4.63 1.71 5.21 4.02.5-.22 1.04-.34 1.61-.34 2.21 0 4 1.77 4 3.96s-1.79 3.96-4 3.96h-3" /><path fill="none" stroke="#000" d="M7.25 11.75L9.5 9.5l2.25 2.25M9.5 18V9.5" /></symbol><symbol viewBox="0 0 20 20" id="etsy"><path d="M8 4.26C8 4.07 8 4 8.31 4h4.46c.79 0 1.22.67 1.53 1.91l.25 1h.76c.14-2.82.26-4 .26-4S13.65 3 12.52 3H6.81l-3.06-.08v.84l1 .2c.73.11.9.27 1 1 0 0 .06 2 .06 5.17s-.06 5.14-.06 5.14c0 .59-.23.81-1 .94l-1 .2v.84l3.06-.1h5.11c1.15 0 3.82.1 3.82.1 0-.7.45-3.88.51-4.22h-.73l-.76 1.69a2.25 2.25 0 01-2.45 1.47H9.4c-1 0-1.44-.4-1.44-1.24v-4.51s2.16 0 2.86.06c.55 0 .85.19 1.06 1l.23 1H13l-.1-2.56.1-2.53h-.85l-.28 1.13c-.16.74-.28.84-1 1-1 .1-2.89.09-2.89.09z" /></symbol><symbol viewBox="0 0 20 20" id="facebook"><path d="M11 10h2.6l.4-3h-3V5.3c0-.9.2-1.5 1.5-1.5H14V1.1c-.3 0-1-.1-2.1-.1C9.6 1 8 2.4 8 5v2H5.5v3H8v8h3v-8z" /></symbol><symbol viewBox="0 0 20 20" id="flickr"><circle cx="5.5" cy="9.5" r="3.5" /><circle cx="14.5" cy="9.5" r="3.5" /></symbol><symbol viewBox="0 0 20 20" id="foursquare"><path d="M15.23 2c.73 0 1.17.41 1.27.86.07.29.06.58.01.87-.05.31-1.65 7.99-1.76 8.3-.19.53-.59.79-1.14.8-.58.01-2.52-.32-2.92.17-.31.38-2.9 3.39-3.88 4.53-.2.23-.41.43-.73.46-.4.05-.79-.12-.91-.54-.05-.17-.07-.36-.07-.54 0-4.51-.24-9.1.01-13.6.06-.81.7-1.19 1.42-1.31h8.7zm-5.47 9.42c.18-.23.41-.32.69-.32h2.41c.26 0 .45-.16.5-.41.01-.05.26-1.28.38-1.86.07-.31-.21-.55-.47-.55-.92.01-1.85 0-2.77 0-.66 0-.67-.59-.68-1.07-.02-.36.31-.66.68-.66 1.09.01 2.17 0 3.26 0 .27 0 .47-.15.52-.41.06-.27.39-1.85.39-1.85s.15-.55-.48-.55H7.34c-.34.01-.5.28-.5.59 0 3.25.01 10.62.01 10.66.02.01 2.04-2.48 2.91-3.57z" /></symbol><symbol viewBox="0 0 20 20" id="github"><path d="M10 1a9 9 0 00-2.84 17.54c.45.08.61-.2.61-.43 0-.21-.01-.78-.01-1.53-2.5.54-3.03-1.21-3.03-1.21-.41-1.04-1-1.32-1-1.32-.82-.55.06-.55.06-.55.9.06 1.38.93 1.38.93.8 1.37 2.11.98 2.62.75.08-.58.31-.98.57-1.2-2-.23-4.1-1-4.1-4.45 0-.98.35-1.79.93-2.42-.09-.23-.4-1.14.09-2.38 0 0 .76-.24 2.47.92.72-.2 1.49-.3 2.25-.3s1.53.1 2.25.3c1.72-1.17 2.47-.92 2.47-.92.49 1.24.18 2.15.09 2.38.58.63.92 1.43.92 2.42 0 3.46-2.1 4.22-4.11 4.44.32.28.61.83.61 1.67 0 1.2-.01 2.17-.01 2.47 0 .24.16.52.62.43A9 9 0 0010 1z" /></symbol><symbol viewBox="0 0 20 20" id="google"><path d="M17.86 9.09c.6 3.03-.72 6.96-4.05 8.47-4.36 1.97-9.68.12-11.34-4.69C.68 7.68 4.22 2.42 9.5 2.03c2.07-.15 3.92.34 5.55 1.62.17.13.32.28.56.49-.71.67-1.38 1.31-2.11 2-1.23-1.06-2.66-1.42-4.22-1.16-1.16.19-2.12.78-2.91 1.65-1.49 1.64-1.75 4.23-.61 6.19 1.19 2.05 3.41 2.98 5.81 2.43 1.7-.38 3.19-1.92 3.32-3.5h-4.38V9.09h7.35z" /></symbol><symbol viewBox="0 0 20 20" id="joomla"><path d="M7.8 13.4l1.7-1.7L5.9 8c-.6-.5-.6-1.5 0-2 .6-.6 1.4-.6 2 0l1.7-1.7c-1-1-2.3-1.3-3.6-1-.2-1.1-1.2-1.9-2.3-1.9-1.3 0-2.3 1-2.3 2.3 0 1.1.8 2 1.8 2.3-.4 1.3-.1 2.8 1 3.8l3.6 3.6z" /><path d="M10.2 4.3c1-1 2.5-1.4 3.8-1 .2-1.1 1.1-2 2.3-2 1.3 0 2.3 1 2.3 2.3 0 1.2-.9 2.2-2 2.3.4 1.3 0 2.8-1 3.8L13.9 8c.6-.5.6-1.5 0-2-.5-.6-1.5-.6-2 0L8.2 9.7 6.5 8" /><path d="M14.1 16.8c-1.3.4-2.8.1-3.8-1l1.7-1.7c.6.6 1.5.6 2 0s.6-1.5 0-2l-3.7-3.7L12 6.7l3.7 3.7c1 1 1.3 2.4 1 3.6 1.1.2 2 1.1 2 2.3 0 1.3-1 2.3-2.3 2.3-1.2 0-2.1-.8-2.3-1.8" /><path d="M13.2 12.2l-3.7 3.7c-1 1-2.4 1.3-3.6 1-.2 1-1.2 1.8-2.2 1.8-1.3 0-2.3-1-2.3-2.3 0-1.1.8-2 1.8-2.3-.3-1.3 0-2.7 1-3.7l1.7 1.7c-.6.6-.6 1.5 0 2 .6.6 1.4.6 2 0l3.7-3.7" /></symbol><symbol viewBox="0 0 20 20" id="linkedin"><path d="M5.77 17.89V7.17H2.21v10.72h3.56zM3.99 5.71c1.24 0 2.02-.82 2.02-1.85C5.99 2.8 5.24 2 4.02 2S2 2.8 2 3.85c0 1.03.77 1.85 1.97 1.85h.02v.01zM7.75 17.89h3.56V11.9c0-.32.02-.64.12-.87.26-.64.84-1.3 1.83-1.3 1.29 0 1.8.98 1.8 2.42v5.74h3.56v-6.15c0-3.29-1.76-4.82-4.1-4.82-1.92 0-2.77 1.07-3.24 1.81h.02V7.17H7.75c.04 1 0 10.72 0 10.72z" /></symbol><symbol viewBox="0 0 20 20" id="pinterest"><path d="M10.21 1C5.5 1 3 4.16 3 7.61c0 1.6.85 3.59 2.22 4.23.21.1.32.05.36-.15.04-.15.22-.89.3-1.24a.31.31 0 00-.08-.31C5.36 9.59 5 8.58 5 7.65c0-2.41 1.82-4.74 4.93-4.74 2.68 0 4.56 1.83 4.56 4.44 0 2.95-1.49 5-3.43 5-1.07 0-1.87-.88-1.62-1.97.31-1.3.91-2.7.91-3.63 0-.84-.45-1.54-1.38-1.54-1.1 0-1.98 1.13-1.98 2.65 0 .97.33 1.62.33 1.62l-1.28 5.43c-.34 1.44.04 3.79.08 3.99.02.11.14.15.21.05.11-.14 1.41-2.1 1.78-3.51.13-.51.68-2.6.68-2.6.36.68 1.4 1.25 2.5 1.25 3.29 0 5.67-3.03 5.67-6.79C16.94 3.7 14 1 10.21 1" /></symbol><symbol viewBox="0 0 20 20" id="soundcloud"><path d="M17.2 9.4c-.4 0-.8.1-1.101.2-.199-2.5-2.399-4.5-5-4.5-.6 0-1.2.1-1.7.3-.199.1-.299.2-.299.2V15h8c1.601 0 2.801-1.2 2.801-2.8C20 10.7 18.7 9.4 17.2 9.4zM6 6.5h1.5V15H6zM3 8h1.5v7H3zM0 10h1.5v5H0z" /></symbol><symbol viewBox="0 0 20 20" id="tumblr"><path d="M6.885 8.598v4.996c0 .282 0 .66.094.942.377 1.509 1.131 2.545 2.545 3.11 1.319.472 2.356.472 3.676 0 .565-.188 1.132-.659 1.132-.659l-.849-2.263s-1.036.378-1.603.283c-.565-.094-1.226-.66-1.226-1.508V8.597h2.828V5.771h-2.828V2H8.205s-.094.66-.188.942c-.189.849-.755 1.791-1.414 2.452C5.848 6.147 5 6.43 5 6.43v2.168h1.885z" /></symbol><symbol viewBox="0 0 20 20" id="twitter"><path d="M19 4.74a7.587 7.587 0 01-2.119.58 3.715 3.715 0 001.622-2.04 7.331 7.331 0 01-2.344.89A3.682 3.682 0 0013.464 3a3.698 3.698 0 00-3.596 4.539 10.482 10.482 0 01-7.614-3.86c-.318.54-.5 1.181-.5 1.86 0 1.281.651 2.411 1.643 3.071a3.654 3.654 0 01-1.674-.461v.04a3.71 3.71 0 002.963 3.631 4.083 4.083 0 01-1.668.06 3.701 3.701 0 003.451 2.569 7.467 7.467 0 01-4.587 1.57 6.44 6.44 0 01-.882-.05 10.439 10.439 0 005.662 1.66c6.792 0 10.508-5.629 10.508-10.5 0-.16-.004-.32-.013-.48A7.533 7.533 0 0019 4.74" /></symbol><symbol viewBox="0 0 20 20" id="vimeo"><path d="M2.065 7.59c-.225-.223-.411-.508-.597-.752-.332-.42-.137-.411.274-.772 1.026-.91 2.004-1.896 3.127-2.688 1.017-.713 2.365-1.173 3.286-.039.849 1.045.869 2.629 1.084 3.891.215 1.309.421 2.648.88 3.901.127.352.37 1.018.81 1.074.567.078 1.145-.917 1.408-1.289.684-.987 1.611-2.317 1.494-3.587-.115-1.349-1.572-1.095-2.482-.773.146-1.514 1.555-3.216 2.912-3.792 1.439-.597 3.579-.587 4.302 1.036.772 1.759.078 3.802-.763 5.396-.918 1.731-2.1 3.333-3.363 4.829-1.114 1.329-2.432 2.787-4.093 3.422-1.897.723-3.021-.686-3.667-2.318-.705-1.777-1.056-3.771-1.565-5.621-.214-.782-.468-1.672-.976-2.317-.663-.833-1.416-.05-2.071.399-.088-.088.05-.039 0 0z" /></symbol><symbol viewBox="0 0 20 20" id="whatsapp"><path d="M16.7 3.3C14.9 1.5 12.6.5 10 .5 4.8.5.6 4.7.6 9.9c0 1.7.4 3.3 1.3 4.7L.6 19.5l5-1.3c1.4.8 2.9 1.2 4.5 1.2 5.2 0 9.4-4.2 9.4-9.4 0-2.6-1-5-2.8-6.7m-6.6 14.4c-1.4 0-2.8-.4-4-1.1l-.3-.2-3 .8.8-2.9-.2-.3c-.8-1.2-1.2-2.7-1.2-4.2C2.2 5.5 5.7 2 10 2c2.1 0 4.1.8 5.5 2.3 1.5 1.5 2.3 3.4 2.3 5.5.1 4.4-3.4 7.9-7.7 7.9m4.3-5.8l-1.6-.8c-.2-.1-.4-.1-.5.1-.2.2-.6.8-.8.9-.1.2-.3.2-.5.1s-1-.4-1.9-1.2c-.7-.6-1.2-1.4-1.3-1.6-.1-.2 0-.4.1-.5.1-.1.2-.2.3-.4.1-.1.2-.2.2-.4.1-.2 0-.3 0-.4 0-.1-.5-1.2-.7-1.7-.2-.5-.4-.4-.5-.4h-.4c-.2 0-.4.1-.6.3-.2.2-.8.8-.8 2s.8 2.3 1 2.4c.1.2 1.7 2.5 4 3.5.6.2 1 .4 1.3.5.6.2 1.1.2 1.5.1.5-.1 1.4-.6 1.6-1.1.2-.5.2-1 .1-1.1-.1-.1-.3-.2-.5-.3" /></symbol><symbol viewBox="0 0 20 20" id="youtube"><path d="M15 4.1c1 .1 2.3 0 3 .8.8.8.9 2.1.9 3.1.1 1.2.1 2.9.1 4-.1 1.1 0 2.4-.5 3.4-.5 1.1-1.4 1.5-2.5 1.6-1.2.1-8.6.1-11 0-1.1-.1-2.4-.1-3.2-1-.7-.8-.7-2-.8-3V8.9c0-1.1 0-2.4.5-3.4S3 4.3 4.1 4.2c1.2-.1 8.5-.2 10.9-.1zM8 7.5v6l5.5-3-5.5-3z" /></symbol></defs><use id="arrow-down-usage" xlink:href="#arrow-down" class="sprite-symbol-usage" /><use id="arrow-left-usage" xlink:href="#arrow-left" class="sprite-symbol-usage" /><use id="arrow-right-usage" xlink:href="#arrow-right" class="sprite-symbol-usage" /><use id="arrow-up-usage" xlink:href="#arrow-up" class="sprite-symbol-usage" /><use id="behance-usage" xlink:href="#behance" class="sprite-symbol-usage" /><use id="chevron-down-usage" xlink:href="#chevron-down" class="sprite-symbol-usage" /><use id="chevron-left-usage" xlink:href="#chevron-left" class="sprite-symbol-usage" /><use id="chevron-right-usage" xlink:href="#chevron-right" class="sprite-symbol-usage" /><use id="chevron-up-usage" xlink:href="#chevron-up" class="sprite-symbol-usage" /><use id="close-usage" xlink:href="#close" class="sprite-symbol-usage" /><use id="cloud-download-usage" xlink:href="#cloud-download" class="sprite-symbol-usage" /><use id="cloud-upload-usage" xlink:href="#cloud-upload" class="sprite-symbol-usage" /><use id="etsy-usage" xlink:href="#etsy" class="sprite-symbol-usage" /><use id="facebook-usage" xlink:href="#facebook" class="sprite-symbol-usage" /><use id="flickr-usage" xlink:href="#flickr" class="sprite-symbol-usage" /><use id="foursquare-usage" xlink:href="#foursquare" class="sprite-symbol-usage" /><use id="github-usage" xlink:href="#github" class="sprite-symbol-usage" /><use id="google-usage" xlink:href="#google" class="sprite-symbol-usage" /><use id="joomla-usage" xlink:href="#joomla" class="sprite-symbol-usage" /><use id="linkedin-usage" xlink:href="#linkedin" class="sprite-symbol-usage" /><use id="pinterest-usage" xlink:href="#pinterest" class="sprite-symbol-usage" /><use id="soundcloud-usage" xlink:href="#soundcloud" class="sprite-symbol-usage" /><use id="tumblr-usage" xlink:href="#tumblr" class="sprite-symbol-usage" /><use id="twitter-usage" xlink:href="#twitter" class="sprite-symbol-usage" /><use id="vimeo-usage" xlink:href="#vimeo" class="sprite-symbol-usage" /><use id="whatsapp-usage" xlink:href="#whatsapp" class="sprite-symbol-usage" /><use id="youtube-usage" xlink:href="#youtube" class="sprite-symbol-usage" /></svg>